<svg class="tk:text-content-body-primary" data-testid="skyshowtime-logo" xmlns="http://www.w3.org/2000/svg" viewBox="0 0 1863.07 431" aria-hidden="true" fill="rgb(255, 255, 255)"><path fill-rule="evenodd" clip-rule="evenodd" d="M965.63 218.45c0-87.08 31-141.7 69.38-147.61C996.63 25.09 933.16 0 875.6 0c-63.47 0-121.04 26.57-160.89 70.85 38.37 7.38 50.18 39.86 50.18 88.57h-45.76c0-29.52-5.9-44.28-23.62-44.28-7.38 0-13.29 4.43-16.24 10.33 0 1.47-1.48 2.95-1.48 2.95-1.47 4.43-2.95 8.86-2.95 13.28 0 59.04 98.9 56.09 98.9 149.08 0 35.43-28.05 69.37-59.04 69.37C756.04 404.43 810.65 431 875.6 431c61.99 0 118.08-26.57 157.93-69.38-36.9-8.85-67.9-60.51-67.9-143.17m-20.66 141.7h-50.18V237.64h-53.14v122.51h-48.71V76.75h48.71v115.14h53.14V76.75h50.18v283.4z"></path><path fill-rule="evenodd" clip-rule="evenodd" d="M702.9 315.87c13.28 0 23.62-13.28 23.62-31 0-35.43-32.47-42.81-66.42-73.8v11.81c1.23 55.55 20.72 92.99 42.8 92.99M1014.34 214.02c0-48.71 13.28-95.94 38.38-95.94 31 0 38.38 73.8 38.38 97.42 0 50.19-16.24 97.42-38.38 97.42-25.09 0-38.38-48.71-38.38-98.9M1507.34 81.18h-208.12l-20.66 162.36-22.14-162.36h-45.76l-23.62 162.36h-1.48l-17.71-162.36h-45.75L1159 357.2h44.28l25.09-175.65h1.48l23.61 175.65h45.76l29.52-233.22h42.81V357.2h50.18V123.98h45.76V357.2h51.66V81.18zM1542.77 81.18h67.89l22.15 141.7 23.61-141.7h66.42V357.2h-45.75V154.98l-33.95 202.22h-28.05l-33.95-202.22h-1.47V357.2h-36.9zM1746.46 81.18h113.65v42.8h-63.47v69.38h47.24v45.76h-47.24v75.27h66.43v42.81h-116.61z"></path><path d="M435.27 402.32c5.19 2.67 15.74 5.86 28.96 6.19 22.77.5 35.16-8.2 44.36-28.63l122.04-272.19c-5.02-2.68-16.23-5.7-25.28-5.86-15.73-.33-36.83 2.85-50.22 34.99l-39.5 93.24-77.51-126.22c-5.02-1.51-17.25-3.68-26.12-3.68-27.45 0-42.68 10.04-58.59 27.28l-75.33 82.37 60.6 95.41c11.22 17.41 25.95 26.28 49.89 26.28 15.73 0 28.79-3.68 34.82-6.52L350.4 214.99l51.73-54.9L487 293.33l-51.73 108.99zM275.16 299.36c0 20.08-7.87 31.64-47.04 31.64-5.19 0-9.71-.34-14.06-1V63.83c0-20.26 6.86-41.36 46.37-41.36 5.02 0 10.05.5 14.74 1.51v275.38zm-80.8-40.18c0 37.5-24.44 64.79-74.16 70.15-35.99 3.85-88.06-.67-112.83-3.52-.83-4.01-1.5-9.04-1.5-13.06 0-32.64 17.58-40.17 34.15-40.17 17.24 0 44.36 3.01 64.45 3.01 22.26 0 28.96-7.53 28.96-14.72 0-9.38-8.88-13.23-26.12-16.58l-47.21-9.04C20.93 227.71 0 200.59 0 171.8c0-34.99 24.78-64.28 73.49-69.63 36.83-4.02 81.69.5 106.3 3.51.84 4.18 1.34 8.2 1.34 12.55 0 32.64-17.24 39.68-33.82 39.68-12.72 0-32.48-2.35-55.08-2.35-22.94 0-32.48 6.36-32.48 14.06 0 8.2 9.04 11.55 23.44 14.07l45.03 8.37c46.21 8.53 66.14 34.82 66.14 67.12"></path></svg>
